<?xml version="1.0" encoding="UTF-8"?>
<svg xmlns="http://www.w3.org/2000/svg" viewBox="0 0 180 87.36">
  <defs>
    <style>
      .cls-1 {
        fill: #fff;
      }

      .cls-2 {
        isolation: isolate;
      }

      .cls-3 {
        mix-blend-mode: multiply;
        opacity: .87;
      }
    </style>
  </defs>
  <g class="cls-2">
    <g id="Capa_1" data-name="Capa 1">
      <g>
        <g>
          <path class="cls-1" d="M107.3,60.88l-2.03,4.52h.86l.45-1.05h2.26l.45,1.05h.88l-2.04-4.52h-.83Zm-.44,2.81l.85-1.98,.85,1.98h-1.7Z"/>
          <polygon class="cls-1" points="115.74 60.88 114.9 60.88 114.9 65.4 118.1 65.4 118.1 64.69 115.74 64.69 115.74 60.88"/>
          <path class="cls-1" d="M123.83,62c.14-.14,.31-.25,.51-.33,.2-.08,.41-.12,.65-.12s.45,.04,.65,.13,.39,.22,.56,.4l.54-.51c-.21-.25-.47-.44-.77-.56-.31-.13-.64-.19-1.01-.19-.35,0-.67,.06-.96,.17-.29,.11-.55,.28-.77,.49-.22,.21-.39,.46-.51,.74-.12,.28-.18,.59-.18,.93s.06,.65,.18,.93c.12,.28,.29,.52,.51,.74,.22,.21,.47,.37,.76,.49,.29,.11,.61,.17,.96,.17,.37,0,.71-.06,1.02-.19,.31-.13,.56-.32,.77-.57l-.54-.51c-.17,.18-.35,.32-.56,.4-.2,.09-.42,.13-.65,.13s-.45-.04-.65-.12c-.2-.08-.37-.19-.51-.33-.14-.14-.26-.31-.34-.5-.08-.19-.12-.41-.12-.64s.04-.45,.12-.64c.08-.19,.19-.36,.34-.5Z"/>
          <path class="cls-1" d="M133,60.88l-2.03,4.52h.86l.45-1.05h2.26l.45,1.05h.88l-2.04-4.52h-.83Zm-.44,2.81l.85-1.98,.85,1.98h-1.7Z"/>
          <polygon class="cls-1" points="141.44 60.88 140.6 60.88 140.6 65.4 143.8 65.4 143.8 64.69 141.44 64.69 141.44 60.88"/>
          <path class="cls-1" d="M151.9,61.16c-.37-.19-.8-.28-1.28-.28h-1.98v4.52h1.98c.48,0,.91-.09,1.28-.28,.37-.19,.66-.45,.87-.79,.21-.34,.31-.74,.31-1.19s-.1-.85-.31-1.19c-.21-.34-.5-.6-.87-.79Zm.13,2.79c-.14,.23-.33,.41-.58,.54-.25,.13-.54,.19-.88,.19h-1.09v-3.1h1.09c.34,0,.63,.06,.88,.19,.25,.13,.44,.31,.58,.54,.14,.23,.21,.5,.21,.82s-.07,.58-.21,.81Z"/>
          <polygon class="cls-1" points="158.2 60.51 158.97 60.51 159.6 59.85 158.7 59.85 158.2 60.51"/>
          <rect class="cls-1" x="158.13" y="60.88" width=".84" height="4.52"/>
          <path class="cls-1" d="M167.72,65.4h.88l-2.04-4.52h-.83l-2.03,4.52h.86l.45-1.05h2.26l.45,1.05Zm-2.42-1.7l.85-1.98,.85,1.98h-1.69Z"/>
        </g>
        <g>
          <path class="cls-1" d="M108.06,71.81c.22-.2,.38-.38,.49-.54,.11-.16,.19-.32,.22-.46,.04-.15,.06-.29,.06-.43,0-.29-.07-.53-.22-.73-.15-.2-.36-.36-.62-.48-.26-.12-.57-.17-.92-.17-.45,0-.83,.09-1.15,.26-.32,.17-.56,.4-.73,.69l.96,.53c.09-.14,.21-.25,.35-.33,.14-.07,.29-.11,.46-.11,.19,0,.34,.04,.44,.12,.1,.08,.15,.2,.15,.34,0,.06,0,.13-.03,.2-.02,.07-.06,.15-.11,.24-.06,.09-.15,.19-.27,.3l-1.69,1.58v.81h3.54v-1.02h-1.76l.85-.79Z"/>
          <path class="cls-1" d="M112.37,69.26c-.3-.18-.65-.28-1.03-.28s-.73,.09-1.04,.28c-.3,.18-.54,.45-.71,.81-.17,.36-.26,.78-.26,1.28s.09,.92,.26,1.28c.17,.36,.41,.62,.71,.81,.3,.18,.65,.28,1.04,.28s.73-.09,1.03-.28c.3-.18,.54-.45,.71-.81,.17-.36,.26-.78,.26-1.28s-.09-.92-.26-1.28c-.17-.35-.41-.62-.71-.81Zm-.42,2.85c-.06,.19-.14,.33-.25,.42s-.23,.13-.37,.13-.26-.04-.37-.13c-.11-.09-.19-.23-.25-.42-.06-.19-.09-.45-.09-.76s.03-.58,.09-.77c.06-.19,.15-.33,.25-.42,.11-.09,.23-.13,.37-.13s.26,.04,.37,.13c.11,.09,.19,.22,.25,.42,.06,.19,.09,.45,.09,.77s-.03,.57-.09,.76Z"/>
          <path class="cls-1" d="M116.35,71.81c.22-.2,.38-.38,.49-.54,.11-.16,.19-.32,.22-.46,.04-.15,.06-.29,.06-.43,0-.29-.07-.53-.22-.73-.15-.2-.36-.36-.62-.48-.26-.12-.57-.17-.92-.17-.45,0-.83,.09-1.15,.26-.32,.17-.56,.4-.73,.69l.95,.53c.09-.14,.21-.25,.35-.33,.14-.07,.29-.11,.46-.11,.19,0,.34,.04,.44,.12,.1,.08,.15,.2,.15,.34,0,.06-.01,.13-.03,.2-.02,.07-.06,.15-.11,.24-.06,.09-.15,.19-.27,.3l-1.69,1.58v.81h3.54v-1.02h-1.76l.85-.79Z"/>
          <polygon class="cls-1" points="121.2 70.96 119.99 70.96 119.99 71.74 119.06 71.74 120.92 69.08 119.58 69.08 117.82 71.53 117.82 72.75 119.95 72.75 119.95 73.62 121.2 73.62 121.2 72.75 121.88 72.75 121.88 71.74 121.2 71.74 121.2 70.96"/>
          <rect class="cls-1" x="124.14" y="71.29" width="1.9" height=".95"/>
          <path class="cls-1" d="M131.05,71.81c.22-.2,.38-.38,.49-.54,.11-.16,.19-.32,.22-.46,.04-.15,.06-.29,.06-.43,0-.29-.07-.53-.22-.73-.15-.2-.36-.36-.62-.48-.26-.12-.57-.17-.92-.17-.45,0-.83,.09-1.15,.26-.32,.17-.56,.4-.73,.69l.96,.53c.09-.14,.21-.25,.35-.33,.14-.07,.29-.11,.46-.11,.19,0,.34,.04,.44,.12,.1,.08,.15,.2,.15,.34,0,.06,0,.13-.03,.2-.02,.07-.06,.15-.11,.24-.06,.09-.15,.19-.27,.3l-1.69,1.58v.81h3.54v-1.02h-1.76l.85-.79Z"/>
          <path class="cls-1" d="M135.36,69.26c-.3-.18-.65-.28-1.03-.28s-.73,.09-1.04,.28c-.3,.18-.54,.45-.71,.81-.17,.36-.26,.78-.26,1.28s.09,.92,.26,1.28c.17,.36,.41,.62,.71,.81,.3,.18,.65,.28,1.04,.28s.73-.09,1.03-.28c.3-.18,.54-.45,.71-.81,.17-.36,.26-.78,.26-1.28s-.09-.92-.26-1.28c-.17-.35-.41-.62-.71-.81Zm-.42,2.85c-.06,.19-.14,.33-.25,.42s-.23,.13-.37,.13-.26-.04-.37-.13c-.11-.09-.19-.23-.25-.42-.06-.19-.09-.45-.09-.76s.03-.58,.09-.77c.06-.19,.15-.33,.25-.42,.11-.09,.23-.13,.37-.13s.26,.04,.37,.13c.11,.09,.19,.22,.25,.42,.06,.19,.09,.45,.09,.77s-.03,.57-.09,.76Z"/>
          <path class="cls-1" d="M139.45,71.81c.22-.2,.38-.38,.49-.54,.11-.16,.19-.32,.22-.46,.04-.15,.06-.29,.06-.43,0-.29-.07-.53-.22-.73-.15-.2-.36-.36-.62-.48-.26-.12-.57-.17-.92-.17-.45,0-.83,.09-1.15,.26-.32,.17-.56,.4-.73,.69l.95,.53c.09-.14,.21-.25,.35-.33,.14-.07,.29-.11,.46-.11,.19,0,.34,.04,.44,.12,.1,.08,.15,.2,.15,.34,0,.06-.01,.13-.03,.2-.02,.07-.06,.15-.11,.24-.06,.09-.15,.19-.27,.3l-1.69,1.58v.81h3.54v-1.02h-1.76l.85-.79Z"/>
          <polygon class="cls-1" points="140.93 69.08 140.93 70.8 142.02 70.8 142.02 70.1 143.46 70.1 141.93 73.62 143.32 73.62 144.93 69.89 144.93 69.08 140.93 69.08"/>
        </g>
        <g>
          <g>
            <path class="cls-1" d="M136.63,27.49l-3.63,8.75c-.11,.27,.09,.57,.38,.57h2.12c.17,0,.33-.11,.39-.27l.29-.82c.06-.16,.22-.27,.39-.27h3.1c.17,0,.33,.11,.39,.27l.31,.83c.06,.16,.22,.27,.39,.27h2.11c.3,0,.5-.3,.38-.57l-3.63-8.75c-.06-.15-.22-.26-.38-.26h-2.22c-.17,0-.32,.1-.38,.26Zm.49,5.68l1-2.75,1.01,2.75h-2.01Z"/>
            <g>
              <path class="cls-1" d="M108.94,27.49l-3.63,8.75c-.11,.27,.09,.57,.38,.57h2.12c.17,0,.33-.11,.39-.27l.29-.82c.06-.16,.22-.27,.39-.27h3.1c.17,0,.33,.11,.39,.27l.31,.83c.06,.16,.22,.27,.39,.27h2.11c.3,0,.5-.3,.38-.57l-3.63-8.75c-.06-.15-.22-.26-.38-.26h-2.22c-.17,0-.32,.1-.38,.26Zm.49,5.68l1-2.75,1.01,2.75h-2.01Z"/>
              <path class="cls-1" d="M112.97,23.9h-2.38c-.09,0-.17,.05-.21,.13l-.97,1.93c-.08,.16,.04,.35,.21,.35h2.07c.09,0,.16-.05,.21-.12l1.21-2.07c.06-.1-.01-.22-.13-.22Z"/>
            </g>
            <polygon class="cls-1" points="119.89 27.23 117.06 27.23 117.06 36.81 124.44 36.81 124.44 34.35 119.89 34.35 119.89 27.23"/>
            <polygon class="cls-1" points="131 27.23 128.62 33.16 126.25 27.23 123.11 27.23 127.1 36.87 130.14 36.87 134.13 27.23 131 27.23"/>
            <path class="cls-1" d="M152.82,30.71c0-2.2-1.59-3.48-4.19-3.48h-4.34v9.58h2.83v-2.52h1.62l1.51,2.52h3.23l-2.06-3.31c.9-.65,1.4-1.64,1.4-2.79Zm-4.21,1.07h-1.48v-2.14h1.48c.78,0,1.35,.41,1.35,1.04s-.58,1.1-1.35,1.1Z"/>
            <path class="cls-1" d="M158.97,27.03c-3.03,0-5.17,2.16-5.17,4.99s2.14,4.99,5.17,4.99,5.17-2.16,5.17-4.99-2.14-4.99-5.17-4.99Zm0,7.33c-1.34,0-2.28-1.09-2.28-2.34s.94-2.34,2.28-2.34,2.28,1.09,2.28,2.34-.94,2.34-2.28,2.34Z"/>
          </g>
          <g>
            <path class="cls-1" d="M110.45,40.31c-3.03,0-5.17,2.16-5.17,4.99s2.14,4.99,5.17,4.99,5.17-2.16,5.17-4.99-2.14-4.99-5.17-4.99Zm0,7.33c-1.34,0-2.28-1.09-2.28-2.34s.94-2.34,2.28-2.34,2.28,1.09,2.28,2.34-.94,2.34-2.28,2.34Z"/>
            <path class="cls-1" d="M123.86,45.2c.85-.32,1.31-1.3,1.31-2.13,0-1.55-1.25-2.56-3.35-2.56h-4.76v9.58h5.12c2.18,0,3.42-1.08,3.42-2.69,0-.99-.61-1.96-1.73-2.2Zm-3.98-2.48h1.41c.73,0,1.13,.24,1.13,.77,0,.49-.41,.86-1.13,.86h-1.41v-1.63Zm1.73,5.13h-1.73v-1.62h1.76c.8,0,1.17,.27,1.17,.77s-.37,.85-1.2,.85Z"/>
            <path class="cls-1" d="M135.41,43.99c0-2.2-1.59-3.48-4.19-3.48h-4.34v9.58h2.83v-2.52h1.62l1.51,2.52h3.23l-2.06-3.31c.9-.65,1.4-1.64,1.4-2.79Zm-4.22,1.07h-1.48v-2.14h1.48c.78,0,1.35,.41,1.35,1.04s-.58,1.1-1.35,1.1Z"/>
            <polygon class="cls-1" points="136.97 50.09 144.41 50.09 144.41 47.71 139.8 47.71 139.8 46.45 143.75 46.45 143.75 44.17 139.8 44.17 139.8 42.89 144.41 42.89 144.41 40.51 136.97 40.51 136.97 50.09"/>
            <path class="cls-1" d="M150.21,46.64l2.64,.03c-.55,.72-1.33,1.06-2.14,1.06-1.54,0-2.52-1.06-2.52-2.47s.92-2.44,2.37-2.44c.86,0,1.58,.34,1.9,1.18h2.95c-.23-2.17-2.26-3.69-4.91-3.69-3.04,0-5.2,2.11-5.2,5.03s2.13,4.95,5.23,4.95c1.16,0,2.11-.38,2.85-1.08l.07,.89h2.06v-5.45h-5.29v2Z"/>
            <g>
              <path class="cls-1" d="M162.03,40.31c-3.03,0-5.17,2.16-5.17,4.99s2.14,4.99,5.17,4.99,5.17-2.16,5.17-4.99-2.14-4.99-5.17-4.99Zm0,7.33c-1.34,0-2.28-1.09-2.28-2.34s.94-2.34,2.28-2.34,2.28,1.09,2.28,2.34-.94,2.34-2.28,2.34Z"/>
              <path class="cls-1" d="M164.27,37.18h-2.38c-.09,0-.17,.05-.21,.13l-.97,1.93c-.08,.16,.04,.35,.21,.35h2.07c.09,0,.16-.05,.21-.12l1.21-2.07c.06-.1-.01-.22-.13-.22Z"/>
            </g>
            <polygon class="cls-1" points="174.81 40.51 174.81 45.11 170.82 40.51 168.61 40.51 168.61 50.09 171.44 50.09 171.44 45.57 175.44 50.09 177.66 50.09 177.66 40.51 174.81 40.51"/>
          </g>
        </g>
        <g>
          <g>
            <g class="cls-3">
              <path class="cls-1" d="M45.15,48.6c.22,.77,1.92,5.11,4.05,10.32,2.13,5.21,3.96,9.5,4.35,10.2l-8.4-20.52Z"/>
            </g>
            <path class="cls-1" d="M70.7,25.5c-14.7,0-25.18,10.18-25.74,23.74l8.21,19.8c4.48,3.89,10.52,6.23,17.53,6.23,15.11,0,25.8-10.76,25.8-24.88s-10.68-24.88-25.8-24.88Zm0,36.55c-6.68,0-11.39-5.41-11.39-11.67s4.71-11.67,11.39-11.67,11.39,5.41,11.39,11.67-4.71,11.67-11.39,11.67Z"/>
          </g>
          <g>
            <g class="cls-3">
              <path class="cls-1" d="M26.28,12.16c-.24,.32-1.2,2.42-2.29,4.98-1.09,2.56-1.92,4.71-1.99,5.11l4.28-10.09Z"/>
            </g>
            <path class="cls-1" d="M38.42,12.09h-12.13c-.71,0-1.34,.42-1.61,1.08l-3.06,7.38c-.48,1.15,.37,2.41,1.61,2.41h8.98c.6,0,1.16-.31,1.48-.82l5.48-8.7c.37-.59-.05-1.36-.75-1.36Z"/>
          </g>
          <g>
            <g class="cls-3">
              <path class="cls-1" d="M20.26,26.85c-.8,1.6-4.89,11.26-9.74,22.99C5.67,61.56,1.76,71.3,1.19,73L20.26,26.85Z"/>
            </g>
            <path class="cls-1" d="M51.82,71.87L33.45,27.56c-.27-.65-.91-1.08-1.61-1.08h-11.52c-.71,0-1.34,.42-1.61,1.08L.33,71.87c-.48,1.15,.37,2.41,1.61,2.41H13.22c.74,0,1.39-.46,1.64-1.15l1.63-4.51c.25-.69,.91-1.15,1.64-1.15h6.54c-3.6-1.04-3.53-2.89-3.44-5.42v-.4c.08-2.18-3.35-2.51-3.39-2.51l-.66-.06,.45-.48c.06-.06,1.42-1.49,3.46-1.55,1.2-.04,2.37,.41,3.49,1.31l-.04-3.85c-1.85-.61-3.12-2.32-3.17-4.24-.85-.61-5.24-3.85-5.43-6.28-.05-.6,.16-1.12,.6-1.53,.36-.33,.8-.47,1.27-.4,.41,.06,.83,.29,1.24,.59-.13-.41-.19-.82-.13-1.19,0,0,0-.02,0-.03,.09-.52,.39-.93,.9-1.2,.37-.2,.78-.22,1.17-.07,.56,.23,1.07,.81,1.51,1.49,0-.25,0-.5,.05-.72,.04-.24,.12-.47,.22-.67,.25-.46,.65-.74,1.2-.83,.28-.05,.54-.03,.77,.04l-.05-2.56c-1.03-.51-1.65-1.65-1.45-2.83,.25-1.43,1.64-2.39,3.09-2.13,1.45,.26,2.42,1.64,2.17,3.07-.15,.83-.67,1.49-1.36,1.86l.06,2.42c.3-.12,.63-.15,1-.08,.51,.1,.89,.39,1.11,.83,.16,.32,.21,.7,.21,1.11,.32-.46,.69-.85,1.12-1.04,.45-.21,.92-.21,1.4,0,.51,.22,.82,.58,.93,1.04,.06,.24,.05,.49,0,.76-.03,.17-.08,.35-.14,.52,.52-.39,1.07-.66,1.59-.68,.51-.02,.96,.21,1.3,.65,.41,.54,.56,1.16,.43,1.84-.47,2.54-4.68,5.29-5.57,5.85,0,.29-.01,.59-.07,.89-.27,1.56-1.32,2.79-2.69,3.38l.04,3.82c1.05-.88,2.16-1.33,3.33-1.33,2.05,0,3.47,1.38,3.53,1.44l.47,.47-.66,.08s-3.45,.44-3.28,2.62l.03,.4c.21,2.55,.36,4.44-3.33,5.59h0s6.07,0,6.07,0c.73,0,1.38,.45,1.64,1.14l1.69,4.54c.25,.68,.91,1.14,1.64,1.14h11.22c1.24,0,2.09-1.26,1.61-2.41Z"/>
          </g>
        </g>
        <g>
          <rect class="cls-1" x="105.27" y="55.08" width="69.59" height=".77"/>
          <path class="cls-1" d="M176.39,52.96c-.64,.12-1.33,1.17-1.47,1.39-.07,0-.15,0-.22,.02-.39,.07-.7,.33-.85,.67h-.96c.22-.28,.34-.55,.34-.85,0-.51-.34-.87-.36-.89l-.12-.12-.02,.17s-.11,.86-.66,.82h-.1c-.5-.05-.9-.09-1.19,.35-.15,.23-.21,.51-.22,.78v.16s0,.16,0,.16c0,.27,.06,.55,.21,.78,.28,.44,.68,.41,1.18,.37h.1c.55-.05,.65,.81,.65,.82l.02,.17,.12-.12s.36-.37,.36-.88c0-.29-.11-.57-.33-.84h.96c.15,.34,.45,.6,.84,.67,.07,.01,.15,.02,.22,.02,.14,.23,.82,1.28,1.46,1.4,.17,.03,.33,0,.46-.11,.11-.08,.17-.2,.16-.32,0-.13-.07-.27-.17-.4,.04,.02,.09,.03,.13,.04,.07,.01,.13,.01,.19,0,.12-.03,.21-.11,.26-.23,.05-.12,.05-.24,0-.35-.05-.11-.14-.2-.26-.28,.1,0,.2-.01,.28-.05,.11-.05,.18-.15,.21-.28,.02-.09,.01-.18-.02-.25h.94c.09,.16,.26,.3,.47,.33,.36,.06,.71-.18,.77-.54,0-.02,0-.05,0-.07,0-.02,0-.05,0-.07-.06-.36-.41-.61-.77-.55-.21,.04-.38,.17-.47,.34l-.94-.02c.03-.07,.04-.16,.02-.25-.03-.13-.1-.22-.21-.28-.08-.04-.18-.05-.28-.05,.12-.08,.21-.17,.26-.28,.05-.11,.05-.23,0-.35-.06-.13-.14-.21-.26-.23-.06-.01-.12-.01-.19,0-.04,0-.09,.02-.13,.04,.1-.13,.17-.27,.17-.4,0-.13-.05-.24-.16-.33-.13-.1-.29-.14-.46-.11Z"/>
        </g>
      </g>
    </g>
  </g>
</svg>